<?xml version="1.0" encoding="utf-8"?>
<svg version="1.1" id="svg2" width="1000" height="710.15857" viewBox="0 0 1000 577.89" xmlns="http://www.w3.org/2000/svg">
  <path id="path1312" style="font-weight: 900; font-size: 83.1974px; line-height: 1.25; font-family: Orbitron; letter-spacing: 19px; display: inline; fill-opacity: 1; stroke-width: 2.82402; fill: rgb(230, 21, 2);" d="M 0 0 L 0 577.32422 L 68.208984 577.32422 L 68.208984 0 L 0 0 Z"/>
  <path id="path1312" style="font-weight: 900; font-size: 83.1974px; line-height: 1.25; font-family: Orbitron; letter-spacing: 19px; display: inline; fill-opacity: 1; stroke-width: 2.82402; fill: rgb(254, 57, 1);" d="M 662.67578 157.36328 C 640.83732 157.36328 623.25781 174.94681 623.25781 196.78516 C 623.25781 218.62337 640.83732 236.20312 662.67578 236.20312 L 815.56445 236.20312 L 815.56445 157.36328 L 662.67578 157.36328 Z"/>
  <path id="path1312" style="font-weight: 900; font-size: 83.1974px; line-height: 1.25; font-family: Orbitron; letter-spacing: 19px; display: inline; fill-opacity: 1; stroke-width: 2.82402; fill: rgb(254, 57, 1);" d="M 184.43555 157.36328 L 184.43555 236.20312 L 337.32422 236.20312 C 359.16257 236.20312 376.74219 218.62351 376.74219 196.78516 C 376.74219 174.94675 359.16257 157.36328 337.32422 157.36328 L 184.43555 157.36328 Z"/>
  <path id="path1312" style="font-weight: 900; font-size: 83.1974px; line-height: 1.25; font-family: Orbitron; letter-spacing: 19px; display: inline; fill-opacity: 1; stroke-width: 2.82402; fill: rgb(254, 104, 6);" d="M 662.67578 89.15625 C 603.04994 89.15625 555.04883 137.15955 555.04883 196.78516 C 555.04883 256.41065 603.04994 304.41213 662.67578 304.41211 L 815.56445 304.41211 L 815.56445 257.15039 L 662.67578 257.15039 C 629.23304 257.15039 602.31055 230.22756 602.31055 196.78516 C 602.31055 163.34261 629.23304 136.41797 662.67578 136.41797 L 815.56445 136.41797 L 815.56445 89.15625 L 662.67578 89.15625 Z"/>
  <path id="path1312" style="font-weight: 900; font-size: 83.1974px; line-height: 1.25; font-family: Orbitron; letter-spacing: 19px; display: inline; fill-opacity: 1; stroke-width: 2.82402; fill: rgb(254, 104, 6);" d="M 184.43555 89.15625 L 184.43555 136.41797 L 337.32422 136.41797 C 370.76683 136.41797 397.68945 163.34247 397.68945 196.78516 C 397.68945 230.22777 370.76683 257.15039 337.32422 257.15039 L 184.43555 257.15039 L 184.43555 304.41211 L 337.32422 304.41211 C 396.95004 304.41211 444.95117 256.41099 444.95117 196.78516 C 444.95117 137.15928 396.95004 89.15625 337.32422 89.15625 L 184.43555 89.15625 Z"/>
  <path id="path1312" style="font-weight: 900; font-size: 83.1974px; line-height: 1.25; font-family: Orbitron; letter-spacing: 19px; display: inline; fill-opacity: 1; stroke-width: 2.82402; fill: rgb(191, 24, 71);" d="M 931.79102 0 L 931.79102 509.11523 L 184.43555 509.11523 L 184.43555 577.32422 L 1000 577.32422 L 1000 0 L 931.79102 0 Z"/>
  <path id="path1312" style="font-weight: 900; font-size: 83.1974px; line-height: 1.25; font-family: Orbitron; letter-spacing: 19px; display: inline; fill-opacity: 1; stroke-width: 2.82402; fill: rgb(191, 24, 71);" d="M 842.63672 0 L 842.63672 419.96289 L 184.43555 419.96289 L 184.43555 488.17188 L 910.84375 488.17188 L 910.84375 0 L 842.63672 0 Z"/>
  <path id="path1312" style="font-weight: 900; font-size: 83.1974px; line-height: 1.25; font-family: Orbitron; letter-spacing: 19px; display: inline; fill-opacity: 1; stroke-width: 2.82402; fill: rgb(196, 87, 3);" d="M 184.43555 0 L 184.43555 68.208984 L 337.31836 68.208984 C 408.54851 68.208984 465.89648 125.55501 465.89648 196.78516 C 465.89648 268.01524 408.54851 325.35937 337.31836 325.35938 L 184.43555 325.35938 L 184.43555 393.56836 L 337.31836 393.56836 C 405.09017 393.56836 464.63346 359.63707 500 307.78125 C 535.36663 359.6371 594.91009 393.56836 662.68164 393.56836 L 815.56445 393.56836 L 815.56445 325.35938 L 662.68164 325.35938 C 591.45138 325.35938 534.10352 268.01484 534.10352 196.78516 C 534.10352 125.55535 591.45138 68.208998 662.68164 68.208984 L 815.56445 68.208984 L 815.56445 0 L 662.68164 0 C 594.9106 0 535.36673 33.931149 500 85.787109 C 464.63336 33.931177 405.08966 -1.1778967e-14 337.31836 0 L 184.43555 0 Z"/>
  <path id="path1312" style="font-weight: 900; font-size: 83.1974px; line-height: 1.25; font-family: Orbitron; letter-spacing: 19px; display: inline; fill-opacity: 1; stroke-width: 2.82402; fill: rgb(230, 21, 2);" d="M 89.15625 0 L 89.15625 577.32422 L 157.36328 577.32422 L 157.36523 0 L 89.15625 0 Z"/>
</svg>